<svg width="449" height="487" viewBox="0 0 449 487" fill="none" xmlns="http://www.w3.org/2000/svg">
<g clip-path="url(#clip0_1_2)">
<path fill-rule="evenodd" clip-rule="evenodd" d="M36 50.1762C14.3111 64.486 0 89.0717 0 117V407C0 451.183 35.8172 487 80 487H369C413.183 487 449 451.183 449 407V117C449 87.8034 433.359 62.2598 410 48.2908V425H36V50.1762Z" fill="#2F639F"/>
<path fill-rule="evenodd" clip-rule="evenodd" d="M80 0H369C413.183 0 449 35.8172 449 80V370C449 414.183 413.183 450 369 450H80C35.8172 450 0 414.183 0 370V80C0 35.8172 35.8172 0 80 0ZM134 106C150.569 106 164 92.5685 164 76C164 59.4315 150.569 46 134 46C117.431 46 104 59.4315 104 76C104 92.5685 117.431 106 134 106ZM344 76C344 92.5685 330.569 106 314 106C297.431 106 284 92.5685 284 76C284 59.4315 297.431 46 314 46C330.569 46 344 59.4315 344 76ZM90 150H359C381.091 150 399 167.909 399 190V361C399 383.091 381.091 401 359 401H90C67.9086 401 50 383.091 50 361V190C50 167.909 67.9086 150 90 150Z" fill="#3190FF"/>
<path d="M351 225H174C160.193 225 149 213.807 149 200C149 186.193 160.193 175 174 175H351C364.807 175 376 186.193 376 200C376 213.807 364.807 225 351 225Z" fill="#2F639F"/>
<path d="M274 375H99C85.1929 375 74 363.807 74 350C74 336.193 85.1929 325 99 325H274C287.807 325 299 336.193 299 350C299 363.807 287.807 375 274 375Z" fill="#2F639F"/>
<path d="M350 300H99C85.1929 300 74 288.807 74 275C74 261.193 85.1929 250 99 250H350C363.807 250 375 261.193 375 275C375 288.807 363.807 300 350 300Z" fill="#2F639F"/>
</g>
<defs>
<clipPath id="clip0_1_2">
<rect width="449" height="487" fill="white"/>
</clipPath>
</defs>
</svg>
